#N canvas 894 601 294 134 10;
#X obj 15 80 outlet~ Left;
#X obj 129 80 outlet~ Right;
#X msg 15 40 set UVoice\$1Left;
#X msg 129 40 set UVoice\$1Right;
#X obj 15 -20 r \$1_Voice;
#X obj 15 60 r~ UVoiceEmpty;
#X obj 129 60 r~ UVoiceEmpty;
#X obj 15 0 sel -1;
#X msg 15 20 set UVoiceEmpty;
#X msg 129 20 set UVoiceEmpty;
#X connect 2 0 5 0;
#X connect 3 0 6 0;
#X connect 4 0 7 0;
#X connect 5 0 0 0;
#X connect 6 0 1 0;
#X connect 7 0 8 0;
#X connect 7 0 9 0;
#X connect 7 1 2 0;
#X connect 7 1 3 0;
#X connect 8 0 5 0;
#X connect 9 0 6 0;
