#N canvas 759 544 317 200 10;
#X obj 120 75 line~;
#X obj 18 16 inlet~ Left;
#X obj 93 16 inlet~ Right;
#X obj 18 91 *~;
#X obj 93 91 *~;
#X obj 52 167 dac~;
#X obj 211 37 r UMasterStop;
#X obj 120 37 r UMasterPlay;
#X msg 211 56 \$1 100;
#X msg 120 56 \$1 20;
#X obj 120 97 r UMasterVolume;
#X obj 120 135 line~;
#X obj 18 151 *~;
#X obj 93 151 *~;
#X msg 120 116 \$1 20;
#X connect 0 0 3 1;
#X connect 0 0 4 1;
#X connect 1 0 3 0;
#X connect 2 0 4 0;
#X connect 3 0 12 0;
#X connect 4 0 13 0;
#X connect 6 0 9 0;
#X connect 6 0 8 0;
#X connect 7 0 9 0;
#X connect 9 0 0 0;
#X connect 10 0 14 0;
#X connect 11 0 12 1;
#X connect 11 0 13 1;
#X connect 12 0 5 0;
#X connect 13 0 5 1;
#X connect 14 0 11 0;
