#N canvas 21 242 396 683 10;
#X obj 99 114 catch~ UVoiceEmpty;
#X obj 99 134 s~ UVoiceEmpty;
#X obj 19 46 ureader~;
#X obj 99 46 table UMasterReceive;
#X obj 99 74 r UReaderSwitch;
#X obj 99 94 switch~;
#X obj 19 73 uvoice~ 0;
#X obj 19 93 uvoice~ 1;
#X obj 19 113 uvoice~ 2;
#X obj 19 133 uvoice~ 3;
#X obj 19 153 uvoice~ 4;
#X obj 19 173 uvoice~ 5;
#X obj 19 193 uvoice~ 6;
#X obj 19 213 uvoice~ 7;
#X obj 19 233 uvoice~ 8;
#X obj 19 253 uvoice~ 9;
#X obj 19 273 uvoice~ 10;
#X obj 19 293 uvoice~ 11;
#X obj 19 313 uvoice~ 12;
#X obj 19 333 uvoice~ 13;
#X obj 19 353 uvoice~ 14;
#X obj 19 373 uvoice~ 15;
#X obj 19 393 uvoice~ 16;
#X obj 19 413 uvoice~ 17;
#X obj 19 433 uvoice~ 18;
#X obj 19 453 uvoice~ 19;
#X obj 19 473 uvoice~ 20;
#X obj 19 493 uvoice~ 21;
#X obj 19 513 uvoice~ 22;
#X obj 19 533 uvoice~ 23;
#X obj 19 553 uvoice~ 24;
#X obj 19 573 uvoice~ 25;
#X obj 19 593 uvoice~ 26;
#X obj 19 613 uvoice~ 27;
#X obj 19 633 uvoice~ 28;
#X obj 19 653 uvoice~ 29;
#X obj 19 673 uvoice~ 30;
#X obj 19 693 uvoice~ 31;
#X obj 19 713 uvoice~ 32;
#X obj 19 733 uvoice~ 33;
#X obj 19 753 uvoice~ 34;
#X obj 19 773 uvoice~ 35;
#X obj 19 793 uvoice~ 36;
#X obj 19 813 uvoice~ 37;
#X obj 19 833 uvoice~ 38;
#X obj 19 853 uvoice~ 39;
#X obj 19 873 uvoice~ 40;
#X obj 19 893 uvoice~ 41;
#X obj 19 913 uvoice~ 42;
#X obj 19 933 uvoice~ 43;
#X obj 19 953 uvoice~ 44;
#X obj 19 973 uvoice~ 45;
#X obj 19 993 uvoice~ 46;
#X obj 19 1013 uvoice~ 47;
#X obj 19 1033 uvoice~ 48;
#X obj 19 1054 uvoice~ 49;
#X obj 19 1073 uvoice~ 50;
#X obj 19 1093 uvoice~ 51;
#X obj 19 1113 uvoice~ 52;
#X obj 19 1133 uvoice~ 53;
#X obj 19 1153 uvoice~ 54;
#X obj 19 1173 uvoice~ 55;
#X obj 19 1193 uvoice~ 56;
#X obj 19 1213 uvoice~ 57;
#X obj 19 1233 uvoice~ 58;
#X obj 19 1253 uvoice~ 59;
#X obj 19 1273 uvoice~ 60;
#X obj 19 1293 uvoice~ 61;
#X obj 19 1313 uvoice~ 62;
#X obj 19 1333 uvoice~ 63;
#X text 17 11 This patch is used internally by the PDPlayer. It must
be included in the StreamingAssets folder.;
#X connect 2 0 6 0;
#X connect 2 0 7 0;
#X connect 2 0 8 0;
#X connect 2 0 9 0;
#X connect 2 0 10 0;
#X connect 2 0 11 0;
#X connect 2 0 12 0;
#X connect 2 0 13 0;
#X connect 2 0 14 0;
#X connect 2 0 15 0;
#X connect 2 0 16 0;
#X connect 2 0 17 0;
#X connect 2 0 18 0;
#X connect 2 0 19 0;
#X connect 2 0 20 0;
#X connect 2 0 21 0;
#X connect 2 0 22 0;
#X connect 2 0 23 0;
#X connect 2 0 24 0;
#X connect 2 0 25 0;
#X connect 2 0 26 0;
#X connect 2 0 27 0;
#X connect 2 0 28 0;
#X connect 2 0 29 0;
#X connect 2 0 30 0;
#X connect 2 0 31 0;
#X connect 2 0 32 0;
#X connect 2 0 33 0;
#X connect 2 0 34 0;
#X connect 2 0 35 0;
#X connect 2 0 36 0;
#X connect 2 0 37 0;
#X connect 2 0 38 0;
#X connect 2 0 39 0;
#X connect 2 0 40 0;
#X connect 2 0 41 0;
#X connect 2 0 42 0;
#X connect 2 0 43 0;
#X connect 2 0 44 0;
#X connect 2 0 45 0;
#X connect 2 0 46 0;
#X connect 2 0 47 0;
#X connect 2 0 48 0;
#X connect 2 0 49 0;
#X connect 2 0 50 0;
#X connect 2 0 51 0;
#X connect 2 0 52 0;
#X connect 2 0 53 0;
#X connect 2 0 54 0;
#X connect 2 0 55 0;
#X connect 2 0 56 0;
#X connect 2 0 57 0;
#X connect 2 0 58 0;
#X connect 2 0 59 0;
#X connect 2 0 60 0;
#X connect 2 0 61 0;
#X connect 2 0 62 0;
#X connect 2 0 63 0;
#X connect 2 0 64 0;
#X connect 2 0 65 0;
#X connect 2 0 66 0;
#X connect 2 0 67 0;
#X connect 2 0 68 0;
#X connect 2 0 69 0;
#X connect 4 0 5 0;
