#N canvas 256 692 395 157 10;
#X obj 16 46 r SampleRate;
#X obj 96 46 r BufferSize;
#X obj 16 65 /;
#X obj 16 104 *~;
#X obj 16 85 phasor~;
#X obj 96 87 * 2;
#X obj 16 124 outlet~;
#X text 16 11 This patch is used internally by the PDPlayer. It must
be included in the StreamingAssets folder.;
#X connect 0 0 2 0;
#X connect 1 0 2 1;
#X connect 1 0 5 0;
#X connect 2 0 4 0;
#X connect 3 0 6 0;
#X connect 4 0 3 0;
#X connect 5 0 3 1;
