#N canvas 1087 528 408 209 10;
#X obj 18 137 catch~ UVoice\$1Left;
#X obj 169 137 catch~ UVoice\$1Right;
#X obj 18 177 s~ UVoice\$1Left;
#X obj 169 177 s~ UVoice\$1Right;
#N canvas 588 437 453 226 voice 0;
#X obj 83 72 r BufferSize;
#X obj 218 148 +~ 1;
#X obj 68 132 +~;
#X obj 83 112 * \$1;
#X msg 68 51 set UVoice\$1Left;
#X msg 218 51 set UVoice\$1Right;
#X obj 68 -11 r UVoice\$1;
#X obj 218 168 tabread~ UMasterReceive;
#X obj 68 168 tabread~ UMasterReceive;
#X obj 218 188 throw~ UVoiceEmpty;
#X obj 68 188 throw~ UVoiceEmpty;
#X obj 83 92 * 2;
#X obj 22 116 inlet~;
#X obj 68 9 sel -1;
#X msg 68 30 set UVoiceEmpty;
#X msg 218 30 set UVoiceEmpty;
#X obj 344 8 r UVoice\$1Switch;
#X obj 344 28 switch~;
#X connect 0 0 11 0;
#X connect 1 0 7 0;
#X connect 2 0 1 0;
#X connect 2 0 8 0;
#X connect 3 0 2 1;
#X connect 4 0 10 0;
#X connect 5 0 9 0;
#X connect 6 0 13 0;
#X connect 7 0 9 0;
#X connect 8 0 10 0;
#X connect 11 0 3 0;
#X connect 12 0 2 0;
#X connect 13 0 14 0;
#X connect 13 0 15 0;
#X connect 13 1 4 0;
#X connect 13 1 5 0;
#X connect 14 0 10 0;
#X connect 15 0 9 0;
#X connect 16 0 17 0;
#X restore 18 100 pd voice;
#X obj 17 75 inlet~;
#X obj 299 67 t a b;
#X msg 344 84 20;
#X obj 299 103 unpack f f;
#X obj 299 122 pack f f;
#X obj 299 141 line~;
#X obj 299 48 r UVoice\$1Volume;
#X obj 18 157 *~;
#X obj 169 157 *~;
#X text 17 11 This patch is used internally by the PDPlayer. It must
be included in the StreamingAssets folder.;
#X connect 0 0 12 0;
#X connect 1 0 13 0;
#X connect 5 0 4 0;
#X connect 6 0 8 0;
#X connect 6 1 7 0;
#X connect 7 0 9 1;
#X connect 8 0 9 0;
#X connect 8 1 9 1;
#X connect 9 0 10 0;
#X connect 10 0 13 1;
#X connect 10 0 12 1;
#X connect 11 0 6 0;
#X connect 12 0 2 0;
#X connect 13 0 3 0;
